<svg xmlns="http://www.w3.org/2000/svg" viewBox="0 0 188.04 43.51">
    <path d="M125.26 11.25c-.76.05-.12-3.52 1.78-6.03 1.1-1.45 2.28-2.27 4.15-3.31 1.49-.83 5.14-1.84 6.8-1.91.24 0 .21.51-.76 4.01-.79 2.82-1.32 4.19-2.1 5.48-1.26 2.06-2.22 2.98-3.57 3.82-1.85 1.15-3.27 1.08-4.92.51-.23-.08.03.97-.39 1.33-.13.11-.55.28-.9.14-.27-.11-.37-.66-.34-.87.36-2.25 3.71-5.7 3.8-5.79 1.8-1.77 3-3.07 5.98-5.83.22-.21-1.13.14-1.9.5-1 .48-3.02 1.69-5.01 4-1.88 2.18-2.35 3.92-2.63 3.94Z" style="fill:#bfcb7c"/>
    <path d="M28.23 15.91h-.58c-2.93-5.33-4.61-6.82-8.83-6.82h-1.15v27.08c0 3.55.19 5.95 3.46 5.95v.58H7.1v-.58c3.26 0 3.46-2.4 3.46-5.95V9.09H9.41c-4.18 0-5.9 1.49-8.83 6.82H0l.72-8.16h26.79l.72 8.16Z" style="fill:#231f20"/>
    <path d="M45.65 36.65c-1.97 3.31-4.94 6.62-10.32 6.62-7.2 0-10.94-5.86-10.94-12.72 0-7.63 4.99-13.58 12.1-13.58 6.05 0 9.5 4.13 9.12 10.56h-14.4c0 7.44 2.16 12 7.34 12 2.78 0 4.8-1.68 6.24-3.41l.86.53Zm-14.4-10.56h8.4c.38-5.14-.34-7.87-3.36-7.87-3.31 0-4.8 3.6-5.04 7.87ZM69.7 39.82c-.77 1.15-2.74 3.46-5.95 3.46-2.93 0-3.74-1.92-3.98-3.55-1.73 2.16-4.66 3.55-7.39 3.55-3.31 0-5.62-2.02-5.62-5.28 0-3.7 2.64-6.48 8.3-8.06l4.37-1.25v-2.78c0-1.34 0-5.71-4.46-5.71-2.98 0-5.23 1.97-6.53 4.37l-.96-.38c1.25-3.89 5.09-7.2 10.56-7.2 5.09 0 7.97 3.22 7.97 8.45v11.47c0 1.58 0 3.02 1.39 3.02.67 0 1.25-.34 1.63-.72l.67.62Zm-10.28-1.15v-8.69l-1.97.72c-2.4.91-4.42 2.02-4.42 5.42 0 2.69 1.39 3.94 3.07 3.94 1.2 0 2.4-.58 3.31-1.39ZM84.29 17.54h7.06v.58c-1.39.29-2.59 2.26-4.42 7.2l-6.82 18.19h-.96l-7.92-20.26c-1.34-3.31-2.06-4.85-3.7-5.14v-.58H79.1v.58c-2.16.19-2.21 1.58-1.34 3.84l4.46 11.86 3.26-8.88c1.73-4.7.91-6.48-1.2-6.82v-.58Z" style="fill:#231f20"/>
    <path d="M90.49 17.36c.86-.06 3.62.05 6.56-.27.93-.1 1.85-.16 2.68-.26.18-.02.48 0 .53.16.12.39.06.93.05 1.12-.22 2.68.19 17.82 0 21.38-.01.25-.06 1 .38 1.66.15.23.55.83 1.15.89.25.03.35.06.49.2 0 0 .08.14-.01.52-1.67.04-7.99.01-10.89-.03-.03-.09-.1-.4.05-.65.08-.14.17-.09.56-.16.56-.1.75-.24.93-.33.4-.21.62-2.1.62-2.1 0-10.13-.21-16.13-.01-17.95.03-.25.03-1.22-.5-2.17-.12-.22-.9-1.41-1.79-1.52-.56-.07-.62.43-.84.21-.18-.18-.25-.7.05-.72Z" style="fill:#050606"/>
    <path d="M135.96 30.42c0-7.97 4.99-13.25 12.19-13.25s12.1 4.99 12.1 13.06-4.99 13.25-12.19 13.25-12.1-4.99-12.1-13.06Zm17.18-.1c0-6.58-1.34-11.91-5.09-11.91s-4.99 5.04-4.99 11.91 1.34 11.91 5.09 11.91 4.99-5.04 4.99-11.91ZM185.93 37.62c0 3.07.14 4.7 2.11 4.7v.58H177.1v-.58c1.97 0 2.11-1.63 2.11-4.7V26.39c0-3.31-.58-5.42-3.7-5.42-1.34 0-3.12.58-4.56 1.54v15.12c0 3.07.14 4.7 2.11 4.7v.58h-10.95v-.58c1.97 0 2.11-1.63 2.11-4.7V24.28c0-3.07-.82-3.94-2.45-4.51v-.58l8.78-1.92h.38v3.89c2.4-2.26 5.57-3.98 8.74-3.98 4.13 0 6.24 2.69 6.24 7.49v12.96ZM104.46 42.01l-.43-6.96h.58c2.02 3.98 4.03 7.01 7.83 7.01 2.45 0 4.42-1.3 4.42-3.65s-1.63-3.41-4.99-5.18L110 32.22c-2.06-1.1-5.38-2.88-5.38-7.44 0-4.94 3.94-7.78 8.88-7.78 1.92 0 4.9.43 6.87 1.2v5.81h-.58c-1.58-3.46-3.65-5.76-6.72-5.76-2.4 0-3.79 1.39-3.79 3.26 0 2.64 2.26 3.79 3.74 4.56l1.87 1.01c3.26 1.73 6.67 3.31 6.67 7.97 0 5.09-4.03 8.26-9.94 8.26-2.35 0-5.33-.48-7.15-1.3Z" style="fill:#231f20"/>
    <path d="M122.42 17.59c.86-.06 3.62.05 6.56-.27.93-.1 1.85-.16 2.68-.26.18-.02.48 0 .53.16.12.39.06.93.05 1.12-.22 2.68.19 17.82 0 21.38-.01.25-.06 1 .38 1.66.15.23.55.83 1.15.89.25.03.35.06.49.2 0 0 .08.14-.01.52-1.67.04-7.99.01-10.89-.03-.03-.09-.1-.4.05-.65.08-.14.17-.09.56-.16.56-.1.75-.24.93-.33.4-.21.62-2.1.62-2.1 0-10.13-.21-16.13-.01-17.95.03-.25.03-1.22-.5-2.17-.12-.22-.9-1.41-1.79-1.52-.56-.07-.62.43-.84.21-.18-.18-.25-.7.05-.72Z" style="fill:#050606"/>
</svg>
