<svg width="119" height="61" viewBox="0 0 119 61" fill="none" xmlns="http://www.w3.org/2000/svg">
<g clip-path="url(#clip0_33_4697)">
<path d="M4.09966 59.8347C2.20641 59.8347 0.667969 58.4654 0.667969 56.7815V20.4546C0.667969 18.7683 2.20641 17.3975 4.09966 17.3975H114.87C116.764 17.3975 118.306 18.7683 118.306 20.4546V56.7815C118.306 58.4654 116.764 59.8347 114.87 59.8347H4.09966Z" fill="white"/>
<path d="M114.872 16.745H4.10178C1.84478 16.745 0.015625 18.407 0.015625 20.4558V56.783C0.015625 58.8293 1.84478 60.4913 4.10178 60.4913H114.872C117.128 60.4913 118.961 58.8293 118.961 56.783V20.4558C118.961 18.407 117.128 16.745 114.872 16.745ZM114.872 18.0538C116.406 18.0538 117.654 19.1311 117.654 20.4558V56.783C117.654 58.1052 116.406 59.1825 114.872 59.1825H4.10178C2.56786 59.1825 1.32153 58.1052 1.32153 56.783V20.4558C1.32153 19.1311 2.56786 18.0538 4.10178 18.0538H114.872Z" fill="#73A534"/>
<path fill-rule="evenodd" clip-rule="evenodd" d="M23.5225 50.9333C21.4545 50.9333 19.5042 50.5254 17.7248 49.7138C12.4822 47.3338 9.9638 43.8838 9.30343 38.1809C8.84439 34.2999 9.89572 29.8976 12.4251 25.0961C12.9048 24.1789 12.7946 23.1744 12.0556 21.7429C11.9492 21.5417 11.5457 21.2068 11.1556 20.8866C10.1464 20.0493 8.7619 18.9041 7.97461 16.7037C6.79723 13.4015 7.68992 10.0122 7.72885 9.87126L8.25199 7.93657L9.89819 9.07548C10.023 9.16281 12.9907 11.2409 14.8308 14.6521C15.7187 16.3093 15.9186 17.9736 15.9551 19.2525C16.5996 18.106 16.7702 17.6731 16.8804 16.268C16.9034 15.9393 16.7472 15.5125 16.5306 14.9217C16.0375 13.5785 15.2924 11.549 15.8918 7.99327C16.8541 2.28079 20.3887 1.03389 20.5365 0.985073L21.8592 0.5401L22.3206 1.85612C22.3849 2.0442 23.9078 6.43585 23.5297 10.245C23.4279 11.3052 23.1941 12.3777 22.8938 13.4038C23.0283 13.2935 23.1664 13.1854 23.3054 13.0799C25.921 11.0758 29.7561 10.472 29.9196 10.4489L31.9184 10.1419L31.5187 12.1253C30.1644 18.8643 26.0383 20.474 21.1892 21.7587C18.2773 22.5362 16.1658 25.8965 14.9119 31.7438C14.3923 34.2236 13.9807 36.1696 15.2779 39.6741C16.4895 43.0162 19.0948 44.882 23.0245 45.2266C23.2766 45.2496 23.5225 45.2593 23.7645 45.2593C26.8463 45.2593 29.045 43.5681 29.5597 42.4253C29.9655 41.5216 30.2007 40.0718 29.7525 39.0237C29.4763 38.3797 28.9639 37.9343 28.1885 37.6603C27.8604 37.5465 27.3104 37.4395 26.73 37.3281C24.8173 36.9591 22.4395 36.5055 21.297 34.6954C20.6941 33.7456 20.5594 32.6015 20.8939 31.2999C21.4532 29.121 23.6509 27.7115 26.4951 27.7115C29.4024 27.7115 32.4272 29.1273 34.7991 31.5923C37.7376 34.6565 38.3763 41.3263 34.5966 46.003C32.1326 49.0453 27.8905 50.9333 23.5225 50.9333Z" fill="white"/>
<path d="M23.5225 50.9333C21.4545 50.9333 19.5042 50.5254 17.7248 49.7138C12.4822 47.3338 9.9638 43.8838 9.30343 38.1809C8.84439 34.2999 9.89572 29.8976 12.4251 25.0961C12.9048 24.1789 12.7946 23.1744 12.0556 21.7429C11.9492 21.5417 11.5457 21.2068 11.1556 20.8866C10.1464 20.0493 8.7619 18.9041 7.97461 16.7037C6.79723 13.4015 7.68992 10.0122 7.72885 9.87126L8.25199 7.93657L9.89819 9.07548C10.023 9.16281 12.9907 11.2409 14.8308 14.6521C15.7187 16.3093 15.9186 17.9736 15.9551 19.2525C16.5996 18.106 16.7702 17.6731 16.8804 16.268C16.9034 15.9393 16.7472 15.5125 16.5306 14.9217C16.0375 13.5785 15.2924 11.549 15.8918 7.99327C16.8541 2.28079 20.3887 1.03389 20.5365 0.985073L21.8592 0.5401L22.3206 1.85612C22.3849 2.0442 23.9078 6.43586 23.5297 10.245C23.4279 11.3052 23.1941 12.3777 22.8938 13.4038C23.0283 13.2935 23.1664 13.1854 23.3054 13.0799C25.921 11.0758 29.7561 10.472 29.9196 10.4489L31.9184 10.1419L31.5187 12.1253C30.1644 18.8643 26.0383 20.474 21.1892 21.7587C18.2773 22.5362 16.1658 25.8965 14.9119 31.7438C14.3923 34.2236 13.9807 36.1696 15.2779 39.6741C16.4895 43.0162 19.0948 44.882 23.0245 45.2266C23.2766 45.2496 23.5225 45.2593 23.7645 45.2593C26.8463 45.2593 29.045 43.5681 29.5597 42.4253C29.9655 41.5216 30.2007 40.0718 29.7525 39.0237C29.4763 38.3797 28.9639 37.9343 28.1885 37.6603C27.8604 37.5465 27.3104 37.4395 26.73 37.3281C24.8173 36.9591 22.4395 36.5055 21.297 34.6954C20.6941 33.7456 20.5594 32.6015 20.8939 31.2999C21.4532 29.121 23.6509 27.7115 26.4951 27.7115C29.4024 27.7115 32.4272 29.1273 34.7991 31.5923C37.7376 34.6565 38.3763 41.3263 34.5966 46.003C32.1326 49.0453 27.8905 50.9333 23.5225 50.9333Z" stroke="white" stroke-width="0.0254483"/>
<path fill-rule="evenodd" clip-rule="evenodd" d="M23.9215 55.8802C14.7937 55.8802 10.1626 51.1877 8.21594 48.3891C5.36708 44.3008 5.31094 39.5577 5.53292 37.0938C5.86107 33.2286 8.04386 28.7765 8.13592 28.5873L10.7611 29.6162C10.7453 29.6657 9.32202 34.5921 9.9555 38.4088C11.2796 46.3183 15.7178 50.1639 23.519 50.1639C34.402 50.1639 36.9956 41.6915 37.0453 38.7241C37.0899 36.064 35.8373 33.1135 33.7843 31.0185C31.955 29.1575 29.6448 28.1324 27.2793 28.1324C21.6863 28.1324 20.206 31.3958 20.206 33.1197C20.206 34.6616 20.206 35.6805 26.2605 36.7555C28.139 37.0948 29.5115 38.501 29.7599 40.339C30.0095 42.1767 29.0381 43.9102 27.2842 44.7558C26.4239 45.1718 25.0563 45.668 23.4235 45.668C21.5435 45.668 18.7621 44.9913 16.1796 41.7629C14.1819 39.2616 13.587 35.0399 14.039 32.3393C14.6738 28.5134 17.198 22.0936 26.9448 22.0936C35.9197 22.0936 43.5043 29.5299 43.5043 38.3349C43.5043 47.7499 34.6393 55.7856 24.1454 55.8802H23.9215Z" fill="white"/>
<path d="M23.9215 55.8802C14.7937 55.8802 10.1626 51.1877 8.21594 48.3891C5.36708 44.3008 5.31094 39.5577 5.53292 37.0938C5.86107 33.2286 8.04386 28.7765 8.13592 28.5873L10.7611 29.6162C10.7453 29.6657 9.32202 34.5921 9.9555 38.4088C11.2796 46.3183 15.7178 50.1639 23.519 50.1639C34.402 50.1639 36.9956 41.6915 37.0453 38.7242C37.0899 36.064 35.8373 33.1135 33.7843 31.0185C31.955 29.1575 29.6448 28.1324 27.2793 28.1324C21.6863 28.1324 20.206 31.3958 20.206 33.1197C20.206 34.6616 20.206 35.6805 26.2605 36.7555C28.139 37.0948 29.5115 38.501 29.7599 40.339C30.0095 42.1767 29.0381 43.9102 27.2842 44.7558C26.4239 45.1718 25.0563 45.668 23.4235 45.668C21.5435 45.668 18.7621 44.9913 16.1796 41.7629C14.1819 39.2616 13.587 35.0399 14.039 32.3393C14.6738 28.5134 17.198 22.0936 26.9448 22.0936C35.9197 22.0936 43.5043 29.5299 43.5043 38.3349C43.5043 47.7499 34.6393 55.7856 24.1454 55.8802H23.9215Z" stroke="white" stroke-width="0.0508763"/>
<path fill-rule="evenodd" clip-rule="evenodd" d="M9.09291 10.2387C9.09291 10.2387 8.26174 13.3057 9.30565 16.2242C10.3464 19.1382 12.6612 19.8528 13.3081 21.0925C14.0265 22.4817 14.5426 24.101 13.6727 25.7558C12.167 28.6152 10.15 33.2943 10.7088 38.0167C11.255 42.753 13.1072 46.0624 18.3111 48.4266C23.5175 50.7946 30.238 49.1387 33.4967 45.1137C36.7578 41.079 36.2623 35.1612 33.7804 32.5735C29.2048 27.8132 23.0804 28.4525 22.2637 31.654C21.2062 35.7482 26.6683 35.6223 28.6561 36.3245C32.0393 37.5147 31.6747 41.1711 30.8476 43.0054C30.0141 44.8551 26.8403 46.9902 22.8997 46.636C17.7552 46.1849 15.1084 43.351 13.9526 40.1653C12.5087 36.2688 12.9846 34.0377 13.5299 31.4466C14.4108 27.3366 16.2495 21.6118 20.8271 20.3927C25.9125 19.0437 29.0001 17.4763 30.1315 11.8474C30.1315 11.8474 26.523 12.3944 24.1609 14.2047C21.7975 16.0083 20.1102 18.3171 19.4315 19.216C17.9695 21.1375 17.6048 20.5867 18.9519 18.7283C19.744 17.6303 21.7792 13.6561 22.1243 10.1053C22.4732 6.56678 20.9857 2.32678 20.9857 2.32678C20.9857 2.32678 18.1198 3.28897 17.2861 8.22873C16.4565 13.1613 18.419 14.5709 18.2881 16.3772C18.1478 18.1885 17.8434 18.795 17.0101 20.2555C16.1753 21.7139 15.5336 22.6915 15.0356 22.6915C14.5607 22.6915 14.5426 21.795 14.5426 20.6778C14.5426 19.5567 14.6878 17.3817 13.5869 15.3243C11.8863 12.1737 9.09291 10.2387 9.09291 10.2387Z" fill="#73A534"/>
<path fill-rule="evenodd" clip-rule="evenodd" d="M9.4034 29.2171C9.4034 29.2171 7.86239 34.4481 8.55997 38.6431C9.47482 44.1046 12.3846 51.5808 23.5193 51.5808C34.6532 51.5808 38.385 43.0757 38.4578 38.7487C38.5511 33.1717 33.8182 26.7182 27.2793 26.7182C20.7634 26.7182 18.7939 30.7591 18.7939 33.1208C18.7939 35.4901 19.3439 36.9653 26.0123 38.1504C28.7438 38.6431 29.3205 42.2061 26.6689 43.4811C24.5405 44.5135 20.7331 45.194 17.2819 40.8801C15.5935 38.7645 15.0265 35.0001 15.4297 32.5751C16.1833 28.0466 19.0156 23.5105 26.9449 23.5105C34.8698 23.5105 42.093 29.9922 42.093 38.335C42.093 46.6885 34.1949 54.3758 24.1323 54.4659C16.1833 54.5351 11.5982 50.7755 9.37415 47.5812C7.14393 44.3787 6.65596 40.3948 6.94066 37.2212C7.25084 33.5734 9.4034 29.2171 9.4034 29.2171Z" fill="#73A534"/>
<path d="M51.9641 27.7308H54.296L53.167 24.1521H53.1306L51.9641 27.7308ZM51.9508 23.8367L51.162 23.7628V22.745H54.033L56.5915 29.9921H56.6035L57.3194 30.0296V31.096H54.0829V30.0795L54.5587 30.042C54.8228 30.0166 54.9478 29.9413 54.8605 29.6658L54.5975 28.8859H51.6636L51.2857 29.9921L52.0404 30.0296V31.096H49.1416V30.0795L49.5558 30.042C49.769 30.0166 49.8454 29.9292 49.9327 29.6902L51.9508 23.8367Z" fill="#121212"/>
<path d="M64.434 31.096H62.4025V30.2796C61.9625 30.9082 61.1982 31.26 60.3706 31.26C59.1159 31.26 58.4278 30.5684 58.4278 29.087V26.1854C58.4278 25.922 58.3273 25.847 58.1139 25.8346L57.7119 25.8092V24.7793H59.9177V28.7607C59.9177 29.5261 60.0439 30.1038 60.8456 30.1038C61.7241 30.1038 62.1892 29.5141 62.1892 28.8614V26.2122C62.1892 25.9354 62.1127 25.847 61.8753 25.8346L61.4743 25.8092V24.7793H63.6815V29.7022C63.6815 29.9787 63.7567 30.0406 63.9954 30.066L64.434 30.1038V31.096Z" fill="#121212"/>
<path d="M67.8427 25.6214C67.3047 25.6214 66.9002 25.8725 66.9002 26.3745C66.9002 26.9532 67.5034 27.1269 68.092 27.2906C69.0696 27.5671 70.1502 27.8824 70.1502 29.2497C70.1502 30.555 69.0696 31.261 67.7302 31.261C66.9403 31.261 65.9493 31.1338 65.4199 30.8704V29.1248L66.5514 29.0361V29.6392C66.5514 29.8793 66.6131 29.9787 66.8398 30.066C67.0771 30.1547 67.3654 30.1912 67.6658 30.1912C68.2946 30.1912 68.6564 29.9546 68.6564 29.4258C68.6564 28.8226 68.1054 28.7112 67.4297 28.5351C66.5004 28.2961 65.484 27.9832 65.484 26.5881C65.484 25.2827 66.5862 24.5911 67.9045 24.5911C68.7585 24.5911 69.4998 24.8546 69.9868 25.0935V26.6015L68.8577 26.6875V26.161C68.8577 25.922 68.7949 25.8215 68.5707 25.7342C68.332 25.6479 68.1432 25.6214 67.8427 25.6214Z" fill="#121212"/>
<path d="M73.2856 23.4484V24.7793H74.9538L74.8301 25.8336H73.2856V29.1382C73.2856 29.9037 73.5861 30.1279 74.1022 30.1279C74.439 30.1279 74.7524 29.991 74.9538 29.8649L75.329 30.8329C74.9538 31.0959 74.3275 31.272 73.7376 31.272C71.7838 31.272 71.7943 30.066 71.7943 29.1878V25.8336H70.9053L71.029 24.9175C71.907 24.8425 72.2088 24.1644 72.4715 23.4484H73.2856Z" fill="#121212"/>
<path d="M76.8683 26.2108C76.8683 25.9343 76.7906 25.847 76.5549 25.8336L76.0254 25.7971V24.7782H78.1477V25.7218C78.4349 25.0935 79.0985 24.5911 79.9283 24.5911C80.3413 24.5911 80.7157 24.6654 81.1302 24.8666V26.7387L79.9637 26.826V26.2473C79.9637 26.0966 79.9417 25.9839 79.8387 25.9343C79.7274 25.8834 79.6401 25.8725 79.5023 25.8725C78.8225 25.8725 78.3596 26.411 78.3596 27.14V30.054L79.4511 30.1049V31.0949H76.0896V30.1413L76.5037 30.1049C76.7401 30.0784 76.8683 30.0031 76.8683 29.6888V26.2108Z" fill="#121212"/>
<path d="M86.1147 25.847C85.9283 25.7597 85.5382 25.6829 85.1503 25.6829C83.9587 25.6829 83.5575 26.8006 83.5575 28.1579C83.5575 29.2001 83.807 30.1912 84.8621 30.1912C85.6397 30.1912 86.1147 29.6392 86.1147 29.0981V25.847ZM87.5686 29.7008C87.5686 29.9777 87.6458 30.054 87.8835 30.066L88.2829 30.0915V31.0959H86.2915V30.3669L86.2517 30.3549C85.8651 30.9202 85.2233 31.26 84.5351 31.26C82.7663 31.26 82.0264 30.0042 82.0264 28.2088C82.0264 25.9973 83.0817 24.5911 85.3384 24.5911C85.7525 24.5911 86.6681 24.6919 87.5686 25.0306V29.7008Z" fill="#121212"/>
<path d="M91.4566 30.054L92.1716 30.0915V31.0972H89.1855V30.1413L89.5986 30.1048C89.8263 30.0808 89.9634 30.0041 89.9634 29.7022V23.5117C89.9634 23.2861 89.8398 23.2229 89.6496 23.2108L89.2109 23.1854V22.1431H91.4566V30.054Z" fill="#121212"/>
<path d="M94.4721 22.0912C95.0237 22.0912 95.4244 22.5058 95.4244 23.0337C95.4244 23.5603 95.0237 23.9509 94.4592 23.9509C93.8836 23.9509 93.5057 23.5603 93.5057 23.0337C93.5057 22.5058 93.8836 22.0912 94.4721 22.0912ZM95.3506 30.053L96.0653 30.0905V31.096H93.0791V30.1404L93.4946 30.1039C93.7203 30.0784 93.8569 30.0031 93.8569 29.7009V26.2098C93.8569 25.9354 93.7844 25.8456 93.5435 25.8456L93.1049 25.8216V24.7782H95.3506V30.053Z" fill="#121212"/>
<path d="M100.95 25.847C100.763 25.7597 100.373 25.6829 99.9853 25.6829C98.7934 25.6829 98.3925 26.8006 98.3925 28.1579C98.3925 29.2001 98.6421 30.1912 99.6973 30.1912C100.475 30.1912 100.95 29.6392 100.95 29.0981V25.847ZM102.404 29.7008C102.404 29.9777 102.481 30.054 102.718 30.066L103.118 30.0915V31.0959H101.127V30.3669L101.087 30.3549C100.7 30.9202 100.058 31.26 99.3702 31.26C97.6017 31.26 96.8613 30.0042 96.8613 28.2088C96.8613 25.9973 97.9166 24.5911 100.173 24.5911C100.588 24.5911 101.503 24.6919 102.404 25.0306V29.7008Z" fill="#121212"/>
<path d="M103.967 24.7793H106.087V25.5956C106.526 24.9688 107.292 24.5911 108.119 24.5911C109.372 24.5911 110.111 25.2951 110.111 26.7762V30.054L110.826 30.0929V31.0959H107.843V30.1427L108.256 30.1049C108.494 30.0794 108.622 30.0042 108.622 29.6901V27.1039C108.622 26.2751 108.445 25.7462 107.592 25.7462C106.764 25.7462 106.299 26.3625 106.299 27.0152V30.054L107.016 30.0929V31.0959H104.031V30.1427L104.444 30.1049C104.684 30.0794 104.81 30.0042 104.81 29.6901V26.2122C104.81 25.9354 104.719 25.8346 104.495 25.8225L103.967 25.7851V24.7793Z" fill="#121212"/>
<path d="M53.52 35.7703C51.9394 35.7703 51.1493 36.901 51.1493 38.7971C51.1493 40.7682 51.8024 41.9862 53.5443 41.9498C53.8955 41.9498 54.2214 41.9113 54.4613 41.8359C54.6867 41.7607 54.7227 41.6613 54.7227 41.4209V40.4178L56.0023 40.5052V42.6778C55.3127 43.0429 54.3221 43.1932 53.52 43.1932C50.9748 43.1932 49.582 41.7607 49.582 38.8989C49.582 35.62 51.5881 34.5269 53.52 34.5269C54.2589 34.5269 55.1264 34.6905 55.8771 35.0413V37.1764L54.5982 37.2662V36.2858C54.5982 36.0482 54.5607 35.9474 54.3342 35.8711C54.0969 35.7971 53.7696 35.7703 53.52 35.7703Z" fill="#121212"/>
<path d="M60.1351 37.5911C59.1319 37.5911 58.6814 38.5581 58.6426 39.4873C59.5704 39.4752 60.8873 39.2617 60.8873 38.2946C60.8873 37.8301 60.5868 37.5911 60.1351 37.5911ZM62.267 38.2706C62.267 40.2042 60.1724 40.5292 58.6922 40.5426C58.7432 41.3589 59.1708 42.025 60.2355 42.025C60.977 42.025 61.5147 41.6853 61.8151 41.4717L62.2924 42.4886C62.0926 42.6657 61.264 43.1922 60.0852 43.1922C57.9532 43.1922 57.126 41.8868 57.126 40.0161C57.126 38.1579 58.1664 36.5247 60.2222 36.5247C61.452 36.5247 62.267 37.152 62.267 38.2706Z" fill="#121212"/>
<path d="M64.0324 38.1445C64.0324 37.8676 63.9548 37.7803 63.7185 37.7673L63.1904 37.7307V36.7115H65.3116V37.6555C65.5985 37.0272 66.2626 36.5248 67.0922 36.5248C67.5052 36.5248 67.8795 36.5987 68.294 36.8002V38.672L67.1272 38.7593V38.1809C67.1272 38.0303 67.1056 37.9175 67.0025 37.8676C66.8911 37.8168 66.8038 37.8047 66.6657 37.8047C65.9862 37.8047 65.5237 38.3446 65.5237 39.0736V41.9877L66.6149 42.0385V43.0285H63.2537V42.075L63.6676 42.0385C63.9039 42.0117 64.0324 41.9367 64.0324 41.6224V38.1445Z" fill="#121212"/>
<path d="M71.4956 35.3821V36.7129H73.1638L73.0402 37.7673H71.4956V41.0716C71.4956 41.837 71.796 42.0617 72.3121 42.0617C72.649 42.0617 72.9625 41.9244 73.1638 41.7982L73.5391 42.7666C73.1638 43.0296 72.5374 43.2056 71.9474 43.2056C69.9936 43.2056 70.0043 41.9997 70.0043 41.1214V37.7673H69.1152L69.2389 36.8512C70.117 36.7759 70.4188 36.0978 70.6814 35.3821H71.4956Z" fill="#121212"/>
<path d="M75.6924 34.0244C76.2461 34.0244 76.6456 34.4395 76.6456 34.9673C76.6456 35.4938 76.2461 35.8845 75.6792 35.8845C75.1037 35.8845 74.7283 35.4938 74.7283 34.9673C74.7283 34.4395 75.1037 34.0244 75.6924 34.0244ZM76.5705 41.9862L77.2854 42.024V43.0295H74.3018V42.0735L74.7148 42.0371C74.9423 42.0116 75.0796 41.9367 75.0796 41.6344V38.143C75.0796 37.8689 75.0043 37.7792 74.7656 37.7792L74.3272 37.7548V36.7118H76.5705V41.9862Z" fill="#121212"/>
<path d="M78.9566 37.7672H77.877V36.7118H78.9566V36.2349C78.9566 35.2318 79.1818 33.9495 81.1246 33.9495C81.677 33.9495 82.4429 34.1506 82.8678 34.3886L82.5032 35.3955C82.1423 35.2049 81.6638 35.0801 81.3125 35.0801C80.6862 35.0801 80.4475 35.4319 80.4475 36.1221V36.7118H82.3043V37.7672H80.4475V41.9742L81.5002 42.0251V43.0285H78.1775V42.0749L78.5919 42.0371C78.8282 42.0117 78.9566 41.9367 78.9566 41.621V37.7672Z" fill="#121212"/>
<path d="M84.5102 34.0244C85.0613 34.0244 85.4623 34.4395 85.4623 34.9673C85.4623 35.4938 85.0613 35.8845 84.4968 35.8845C83.9213 35.8845 83.5437 35.4938 83.5437 34.9673C83.5437 34.4395 83.9213 34.0244 84.5102 34.0244ZM85.3887 41.9862L86.1031 42.024V43.0295H83.1172V42.0735L83.5326 42.0371C83.7579 42.0116 83.895 41.9367 83.895 41.6344V38.143C83.895 37.8689 83.8221 37.7792 83.5812 37.7792L83.1426 37.7548V36.7118H85.3887V41.9862Z" fill="#121212"/>
<path d="M89.8597 37.5911C88.8566 37.5911 88.4057 38.5581 88.3659 39.4873C89.2952 39.4752 90.6116 39.2617 90.6116 38.2946C90.6116 37.8301 90.3111 37.5911 89.8597 37.5911ZM91.9902 38.2706C91.9902 40.2042 89.897 40.5292 88.4167 40.5426C88.4665 41.3589 88.8953 42.025 89.9588 42.025C90.7002 42.025 91.2379 41.6853 91.5384 41.4717L92.0158 42.4886C91.8172 42.6657 90.9872 43.1922 89.8085 43.1922C87.6778 43.1922 86.8506 41.8868 86.8506 40.0161C86.8506 38.1579 87.8897 36.5247 89.9454 36.5247C91.1761 36.5247 91.9902 37.152 91.9902 38.2706Z" fill="#121212"/>
<path d="M97.0309 37.8168C96.8029 37.7174 96.4665 37.6166 96.0774 37.6166C94.884 37.6166 94.4845 38.7473 94.4845 39.9773C94.4845 41.119 94.7594 42.087 95.8388 42.087C96.5412 42.087 97.0309 41.621 97.0309 41.0691V37.8168ZM97.0309 36.6741V35.4052C97.0309 35.1916 96.9179 35.1177 96.7035 35.1043L96.1657 35.0668V34.0757H98.4978V41.7108C98.5113 41.9244 98.5969 41.9986 98.8113 41.9986L99.2497 42.0251V43.0285H97.2198V42.2872L97.181 42.2751C96.7908 42.9034 96.1657 43.1922 95.474 43.1922C93.5191 43.1922 92.9424 41.6843 92.9424 40.1156C92.9424 37.9673 94.0448 36.5238 96.002 36.5238C96.4419 36.5238 96.7426 36.5867 97.0309 36.6741Z" fill="#121212"/>
<path d="M53.3068 53.039C54.8997 53.039 55.3505 51.5335 55.3505 50.0243C55.3505 48.7447 55.0126 46.9369 53.2802 46.9369C51.6763 46.9369 51.1493 48.4304 51.1493 49.9249C51.1493 51.3565 51.4995 53.039 53.3068 53.039ZM53.2195 54.308C50.9872 54.308 49.582 52.851 49.582 49.9882C49.582 46.7733 51.6002 45.6426 53.3565 45.6426C55.2245 45.6426 56.9044 46.7973 56.9044 49.9882C56.9044 52.863 55.4133 54.308 53.2195 54.308Z" fill="#121212"/>
<path d="M58.722 49.2589C58.722 48.9824 58.6457 48.8951 58.408 48.8817L57.8799 48.8452V47.8262H60.0009V48.7702C60.2884 48.1416 60.9531 47.6395 61.7817 47.6395C62.1948 47.6395 62.5705 47.7135 62.9846 47.915V49.7868L61.8181 49.8741V49.2954C61.8181 49.145 61.795 49.0322 61.6935 48.9824C61.5808 48.9315 61.4937 48.9206 61.3552 48.9206C60.6782 48.9206 60.2142 49.4591 60.2142 50.1884V53.1021L61.3044 53.1529V54.1429H57.9431V53.1894L58.3586 53.1529C58.5949 53.1265 58.722 53.0512 58.722 52.7369V49.2589Z" fill="#121212"/>
<path d="M67.9899 48.883C67.702 48.7823 67.3371 48.7323 66.9869 48.7323C65.9465 48.7323 65.4074 49.5621 65.4074 50.8287C65.4074 51.6839 65.5454 52.8135 66.711 52.8135C67.4134 52.8135 67.9899 52.3489 67.9899 51.5821V48.883ZM64.1643 56.4177V54.6733L65.3566 54.5724V55.1753C65.3566 55.4132 65.4195 55.5395 65.6447 55.6268C65.8824 55.7152 66.1607 55.7516 66.5364 55.7516C67.6895 55.7516 67.9899 54.9618 67.9899 53.9064V53.2162C67.5634 53.7173 66.9361 53.9184 66.3217 53.9184C64.4916 53.9184 63.8643 52.4119 63.8643 50.9803C63.8643 48.7059 65.2317 47.6395 67.1249 47.6395C67.7273 47.6395 68.7048 47.7899 69.4435 48.1041V52.7636C69.4435 53.2028 69.4568 53.6798 69.4194 54.132C69.269 55.9786 68.403 56.8314 66.523 56.8314C65.7308 56.8314 64.6937 56.6808 64.1643 56.4177Z" fill="#121212"/>
<path d="M74.8674 48.895C74.6786 48.8077 74.291 48.7313 73.9009 48.7313C72.7115 48.7313 72.3078 49.8486 72.3078 51.2059C72.3078 52.2481 72.5599 53.2392 73.6127 53.2392C74.3901 53.2392 74.8674 52.6873 74.8674 52.146V48.895ZM76.3213 52.7492C76.3213 53.0257 76.3961 53.102 76.6362 53.1144L77.0359 53.1398V54.1443H75.0443V53.4149L75.0044 53.4029C74.6181 53.9682 73.9761 54.308 73.2879 54.308C71.5195 54.308 70.7793 53.0525 70.7793 51.2571C70.7793 49.0453 71.8344 47.6395 74.0887 47.6395C74.5029 47.6395 75.4187 47.7403 76.3213 48.0786V52.7492Z" fill="#121212"/>
<path d="M77.8828 47.8276H80.0004V48.6441C80.4401 48.0168 81.2057 47.6395 82.0332 47.6395C83.288 47.6395 84.0269 48.3432 84.0269 49.8242V53.1021L84.7418 53.1409V54.1443H81.7568V53.1908L82.1723 53.1529C82.4098 53.1275 82.5359 53.0526 82.5359 52.7382V50.1519C82.5359 49.3232 82.3592 48.7943 81.5062 48.7943C80.6799 48.7943 80.2147 49.4106 80.2147 50.0633V53.1021L80.9296 53.1409V54.1443H77.9468V53.1908L78.36 53.1529C78.5977 53.1275 78.7225 53.0526 78.7225 52.7382V49.2602C78.7225 48.9837 78.6351 48.883 78.4089 48.8706L77.8828 48.8332V47.8276Z" fill="#121212"/>
<path d="M87.0444 45.1406C87.5955 45.1406 87.9966 45.5552 87.9966 46.0831C87.9966 46.6096 87.5955 47.0002 87.0309 47.0002C86.4559 47.0002 86.0777 46.6096 86.0777 46.0831C86.0777 45.5552 86.4559 45.1406 87.0444 45.1406ZM87.9227 53.102L88.6373 53.1398V54.1453H85.6514V53.1893L86.0667 53.1529C86.292 53.1275 86.429 53.0525 86.429 52.7503V49.2588C86.429 48.9848 86.3561 48.895 86.1151 48.895L85.6767 48.8705V47.8276H87.9227V53.102Z" fill="#121212"/>
<path d="M93.9242 52.6254L94.4623 53.5924C93.9727 53.9937 93.2072 54.3214 92.2805 54.3214C90.4355 54.3214 89.3467 53.1529 89.3467 51.0691C89.3467 48.5178 90.9129 47.6395 92.329 47.6395C93.0813 47.6395 93.6847 47.8276 94.2864 48.155V49.7878L93.1335 49.8741V49.2723C93.1335 49.0333 93.0945 48.9219 92.8704 48.8452C92.7205 48.7943 92.57 48.7713 92.3798 48.7713C91.3782 48.7713 90.8643 49.5233 90.8643 50.916C90.8643 52.2857 91.3646 53.164 92.4803 53.164C92.971 53.164 93.4081 53.0027 93.9242 52.6254Z" fill="#121212"/>
</g>
<defs>
<clipPath id="clip0_33_4697">
<rect width="119" height="60" fill="white" transform="translate(0 0.5)"/>
</clipPath>
</defs>
</svg>
