<svg width="56" height="61" viewBox="0 0 56 61" fill="none" xmlns="http://www.w3.org/2000/svg">
<g clip-path="url(#clip0_33_4761)">
<path d="M3.63036 54.536V55.3863H0.135956V52.5001H0.751956V54.536H1.53596V52.7516H2.15196V54.536H3.63036ZM1.88316 50.2246C2.85756 50.2246 3.10396 49.5779 3.10396 49.1228C3.10396 48.6677 2.85756 48.021 1.88316 48.021C0.908756 48.021 0.662356 48.6677 0.662356 49.1228C0.662356 49.5779 0.908756 50.2246 1.88316 50.2246ZM1.88316 51.0749C0.247956 51.0749 0.0463561 49.6617 0.0463561 49.1228C0.0463561 48.5839 0.247956 47.1827 1.88316 47.1827C3.51836 47.1827 3.71996 48.5959 3.71996 49.1228C3.71996 49.6617 3.51836 51.0749 1.88316 51.0749ZM1.88316 44.7875C2.85756 44.7875 3.10396 44.1408 3.10396 43.6857C3.10396 43.2306 2.85756 42.5839 1.88316 42.5839C0.908756 42.5839 0.662356 43.2306 0.662356 43.6857C0.662356 44.1408 0.908756 44.7875 1.88316 44.7875ZM1.88316 45.6378C0.247956 45.6378 0.0463561 44.2246 0.0463561 43.6857C0.0463561 43.1468 0.247956 41.7336 1.88316 41.7336C3.51836 41.7336 3.71996 43.1468 3.71996 43.6857C3.71996 44.2246 3.51836 45.6378 1.88316 45.6378ZM3.02556 39.1947V38.3683C3.02556 37.6857 2.43196 37.4462 1.84956 37.4462C0.819156 37.4462 0.740756 38.021 0.740756 38.3803V39.1947H3.02556ZM0.135956 40.021V38.2366C0.135956 36.8713 1.13276 36.5839 1.80476 36.5839C2.55516 36.5839 3.63036 36.9312 3.63036 38.2605V40.021H0.135956ZM2.55516 32.5001C2.99196 32.5001 3.71996 32.2486 3.71996 30.7635C3.71996 30.4043 3.63036 29.1707 2.57756 29.1707C1.95036 29.1707 1.75996 29.6737 1.63676 30.2366L1.42396 31.2186C1.39036 31.3863 1.33436 31.6498 1.05436 31.6498C0.740756 31.6498 0.639956 31.2665 0.639956 30.9432C0.639956 30.2007 1.00956 30.1408 1.16636 30.1168V29.3025C0.740756 29.3025 0.0351562 29.6378 0.0351562 30.8833C0.0351562 32.2007 0.718356 32.4402 1.11036 32.4402C1.88316 32.4402 2.00636 31.8055 2.14076 31.1468L2.23036 30.7156C2.31996 30.2845 2.38716 29.9851 2.66716 29.9851C3.03676 29.9851 3.11516 30.4282 3.11516 30.8354C3.11516 31.5779 2.74556 31.6857 2.55516 31.6977V32.5001ZM2.30876 26.4043V25.3743L0.931156 25.8773V25.8893L2.30876 26.4043ZM3.63036 26.9073V27.7935L0.135956 26.3444V25.3623L3.63036 23.9372V24.8593L2.91356 25.1228V26.6198L3.63036 26.9073ZM2.16316 21.518V19.7336H1.54716V21.518H0.763156V19.4821H0.147156V22.3683H3.64156V21.518H2.16316ZM0.135956 14.8953V17.8773H3.63036V14.7995H3.01436V17.039H2.10716V15.0629H1.49116V17.039H0.751956V14.8953H0.135956ZM0.751956 11.3504V10.1288H0.135956V13.4222H0.751956V12.2007H3.63036V11.3504H0.751956ZM2.31996 6.67971L0.135956 5.32642V6.2845L1.65916 7.08689L0.135956 7.92522V8.91923L2.30876 7.51803H3.63036V6.66773H2.31996V6.67971ZM54.1984 6.96713C54.1984 7.58989 54.5904 7.58989 54.7472 7.58989C55.0832 7.58989 55.2288 7.37432 55.2288 6.85935V6.20067H54.1984V6.96713ZM52.3392 6.20067V5.36234H55.8336V7.1827C55.8336 7.94917 55.3968 8.41624 54.7136 8.41624C54.4 8.41624 53.6048 8.21264 53.6048 7.14678V6.18869H52.3392V6.20067ZM54.288 12.548C54.288 12.9791 54.4224 13.1947 54.7696 13.1947C54.9488 13.1947 55.2288 13.0989 55.2288 12.6079V11.5659H54.2992V12.548H54.288ZM55.8336 10.7635V12.7755C55.8336 13.8414 55.1504 14.033 54.848 14.033C54.4672 14.033 54.1312 13.8055 54.0192 13.4222C53.896 13.7456 53.784 13.9252 53.1344 13.9252C52.6192 13.9252 52.496 13.9252 52.44 14.1049H52.3504V13.1827C52.5184 13.1228 52.6976 13.0989 53.056 13.0989C53.5264 13.0989 53.7168 13.0629 53.7168 12.4522V11.5899H52.3504V10.7755H55.8336V10.7635ZM54.0864 17.0031C53.112 17.0031 52.8656 17.6378 52.8656 18.0809C52.8656 18.536 53.112 19.1588 54.0864 19.1588C55.0608 19.1588 55.3072 18.524 55.3072 18.0809C55.3072 17.6378 55.0608 17.0031 54.0864 17.0031ZM54.0864 16.1767C55.7216 16.1767 55.9232 17.5659 55.9232 18.0929C55.9232 18.6198 55.7216 20.0091 54.0864 20.0091C52.4512 20.0091 52.2496 18.6198 52.2496 18.0929C52.2496 17.5659 52.44 16.1767 54.0864 16.1767ZM53.6272 24.2366V25.1588C52.9216 24.9911 52.8544 24.3803 52.8544 24.1887C52.8544 23.6258 53.1008 23.027 54.0528 23.027C54.9488 23.027 55.3072 23.5779 55.3072 24.1767C55.3072 24.7635 54.8704 25.051 54.736 25.051V25.8893C55.2176 25.8414 55.912 25.3623 55.912 24.1408C55.9232 22.7995 55.016 22.1887 54.064 22.1887C52.8432 22.1887 52.2384 23.0629 52.2384 24.021C52.2384 24.7516 52.552 25.051 52.7648 25.2665L52.328 25.3504V25.9013H54.2096V24.2366H53.6272ZM54.288 30.1647C54.288 30.5959 54.4224 30.8114 54.7696 30.8114C54.9488 30.8114 55.2288 30.7156 55.2288 30.2246V29.1827H54.2992V30.1647H54.288ZM55.8336 28.3803V30.3923C55.8336 31.4582 55.1504 31.6498 54.848 31.6498C54.4672 31.6498 54.1312 31.4222 54.0192 31.027C53.896 31.3504 53.784 31.53 53.1344 31.53C52.6192 31.53 52.496 31.53 52.44 31.7096H52.3504V30.7875C52.5184 30.7276 52.6976 30.7037 53.056 30.7037C53.5264 30.7037 53.7168 30.6677 53.7168 30.057V29.1947H52.3504V28.3803H55.8336ZM53.6608 35.1468V36.1647L55.0384 35.6737V35.6617L53.6608 35.1468ZM52.3392 34.6438V33.7695L55.8336 35.1947V36.1528L52.3392 37.554V36.6438L53.056 36.3923V34.9192L52.3392 34.6438ZM55.8336 43.6019V42.3923L53.0784 41.6857V41.6737L55.8336 40.9552V39.7336H52.3392V40.512H55.2624V40.524L52.3392 41.2546V42.0689L55.2624 42.8114V42.8234H52.3392V43.6019H55.8336ZM55.8336 49.9252V48.7276L53.0784 48.021V48.009L55.8336 47.2905V46.0689H52.3392V46.8474H55.2624V46.8593L52.3392 47.5899V48.4043L55.2624 49.1468V49.1587H52.3392V49.9372H55.8336V49.9252ZM55.8336 55.3504V52.4162H52.3392V55.4462H52.9552V53.2306H53.8624V55.1707H54.4784V53.2306H55.2064V55.3504H55.8336ZM6.63196 2.71564V4.39228H7.37116V0.655758H6.63196V2.06893H5.24316V0.655758H4.50396V4.39228H5.24316V2.71564H6.63196ZM9.05116 2.97911H9.95836L9.52156 1.49408H9.51036L9.05116 2.97911ZM8.60316 4.39228H7.81916L9.09596 0.655758H9.95836L11.2016 4.39228H10.3952L10.1712 3.62582H8.84956L8.60316 4.39228ZM14.4944 1.87731C14.4496 1.32642 14.024 0.55995 12.96 0.55995C12.0416 0.55995 11.3248 1.23061 11.3248 2.536C11.3248 3.82941 12.008 4.50007 12.9488 4.50007C13.8448 4.50007 14.3488 3.9372 14.4944 3.12282H13.7552C13.6656 3.57791 13.3744 3.82941 12.9712 3.82941C12.344 3.82941 12.0864 3.23061 12.0864 2.55995C12.0864 1.50606 12.6128 1.25456 12.9712 1.25456C13.5872 1.25456 13.6992 1.67372 13.7552 1.90127H14.4944V1.87731ZM18.0672 1.87731C18.0224 1.32642 17.5968 0.55995 16.5328 0.55995C15.6144 0.55995 14.8976 1.21863 14.8976 2.52402C14.8976 3.81743 15.5808 4.48809 16.5216 4.48809C17.4176 4.48809 17.9216 3.92522 18.0672 3.11085H17.328C17.2384 3.56594 16.9472 3.81743 16.544 3.81743C15.9168 3.81743 15.6592 3.21863 15.6592 2.54797C15.6592 1.49408 16.1856 1.24258 16.544 1.24258C17.16 1.24258 17.272 1.66175 17.328 1.88929H18.0672V1.87731ZM20.0608 2.39228C20.6208 2.39228 20.6208 1.97312 20.6208 1.80546C20.6208 1.44618 20.4304 1.29049 19.9712 1.29049H19.3776V2.39228H20.0608ZM19.3776 4.39228H18.6384V0.655758H20.2624C20.9456 0.655758 21.3712 1.12282 21.3712 1.85336C21.3712 2.18869 21.192 3.03899 20.24 3.03899H19.3776V4.39228ZM24.2608 2.97911H25.168L24.7312 1.50606H24.72L24.2608 2.97911ZM23.8128 4.39228H23.0288L24.3056 0.655758H25.1568L26.4112 4.39228H25.6048L25.3808 3.62582H24.0704L23.8128 4.39228ZM29.4912 0.655758H28.7296V3.11085C28.7296 3.56594 28.5168 3.82941 28.0128 3.82941C27.6656 3.82941 27.3744 3.60187 27.3744 3.0869V0.655758H26.6128V3.1348C26.624 3.50606 26.7024 3.80546 26.8928 4.04498C27.2064 4.41624 27.6992 4.50007 28.024 4.50007C28.92 4.50007 29.48 4.08091 29.48 3.09887V0.655758H29.4912ZM30.0288 3.24258C30.0288 3.70965 30.2528 4.48809 31.552 4.48809C31.8656 4.48809 32.952 4.39228 32.952 3.26654C32.952 2.59588 32.504 2.39228 32.0224 2.26055L31.16 2.033C31.0144 1.99708 30.7792 1.9372 30.7792 1.63779C30.7792 1.30246 31.1152 1.19468 31.3952 1.19468C32.0448 1.19468 32.1008 1.58989 32.1232 1.75755H32.84C32.84 1.30246 32.5376 0.547974 31.4512 0.547974C30.2976 0.547974 30.0848 1.27851 30.0848 1.69767C30.0848 2.52402 30.6336 2.65576 31.216 2.79947L31.5968 2.89528C31.9776 2.99109 32.2464 3.06294 32.2464 3.36234C32.2464 3.75755 31.8544 3.84139 31.5072 3.84139C30.8576 3.84139 30.7568 3.44618 30.7568 3.24258H30.0288ZM35.024 1.31444H36.0992V0.655758H33.2096V1.31444H34.2848V4.39228H35.024V1.31444ZM38.1376 2.29648C38.5184 2.29648 38.7088 2.15276 38.7088 1.78151C38.7088 1.58989 38.6192 1.29049 38.1936 1.29049H37.264V2.29648H38.1376ZM36.5472 0.655758H38.3392C39.2912 0.655758 39.4592 1.3863 39.4592 1.70965C39.4592 2.11684 39.2576 2.47612 38.9104 2.59588C39.2016 2.72761 39.3584 2.84737 39.3584 3.54199C39.3584 4.09288 39.3584 4.22462 39.5152 4.2845V4.38031H38.6976C38.6528 4.20067 38.6192 4.00905 38.6192 3.62582C38.6192 3.11085 38.5856 2.91923 38.0368 2.91923H37.264V4.38031H36.536V0.655758H36.5472ZM41.072 2.97911H41.9792L41.5424 1.50606H41.5312L41.072 2.97911ZM40.624 4.39228H39.84L41.1056 0.655758H41.968L43.2224 4.39228H42.416L42.192 3.62582H40.8816L40.624 4.39228ZM44.4432 0.655758H43.704V4.39228H46.2128V3.72163H44.4432V0.655758ZM47.4 0.655758H46.6608V4.39228H47.4V0.655758ZM49.0464 2.97911H49.9536L49.5168 1.50606H49.5056L49.0464 2.97911ZM48.5984 4.39228H47.8144L49.08 0.655758H49.9424L51.1968 4.39228H50.3904L50.1664 3.62582H48.856L48.5984 4.39228ZM4.35836 5.31444H27.1616V29.6857H4.35836V5.31444ZM24.104 8.75157L7.56156 26.524H24.104V8.75157ZM28.6736 5.31444H51.4656V29.6857H28.6736V5.31444ZM48.7888 17.8653C48.7888 10.6917 43.8608 8.57193 40.0528 8.57193C35.1472 8.57193 31.7872 12.0689 31.7872 17.7576V26.5959H48.8V17.8653H48.7888ZM28.6624 31.2306H51.4656V55.6857H28.6624V31.2306ZM40.3776 52.2246C45.0032 52.2246 48.744 48.2366 48.744 43.3144C48.744 38.3923 45.0032 34.4043 40.3776 34.4043C35.7632 34.4043 32.0224 38.3923 32.0224 43.3144C32.0224 48.2366 35.7632 52.2246 40.3776 52.2246ZM4.35836 31.2306V49.8893L13.2512 40.5719L7.31516 34.2486L24.3168 34.3084V52.1288L18.7056 46.1528L9.77916 55.6138H27.2512V31.2306H4.35836ZM40.1648 13.3384C37.0064 13.3384 35.416 15.1947 35.416 18.1408V22.1887H45.048V17.9851C45.048 15.1707 43.3232 13.3384 40.1648 13.3384ZM7.59516 57.8773C7.50556 57.015 6.85596 56.536 6.08316 56.536C4.99676 56.536 4.35836 57.3983 4.35836 58.5001C4.35836 59.5779 4.99676 60.4402 6.08316 60.4402C6.94556 60.4402 7.55036 59.8414 7.62876 58.9192H6.87836C6.82236 59.4102 6.55356 59.7575 6.08316 59.7575C5.38876 59.7575 5.13116 59.1348 5.13116 58.512C5.13116 57.8653 5.38876 57.2306 6.08316 57.2306C6.46396 57.2306 6.79996 57.518 6.84476 57.8773H7.59516ZM8.98396 60.3444H11.6496V59.6617H9.75676V58.7516H11.4592V58.1168H9.75676V57.3144H11.616V56.6198H8.98396V60.3444ZM12.9936 60.3444H13.7664V58.8833H14.5392C14.9312 58.8833 15.0656 59.051 15.1216 59.4462C15.1664 59.7456 15.1552 60.1049 15.2448 60.3444H16.0176C15.8832 60.1408 15.8832 59.6977 15.872 59.4581C15.8496 59.0869 15.7376 58.6917 15.3568 58.5839C15.7488 58.4162 15.9168 58.0929 15.9168 57.6498C15.9168 57.0869 15.5136 56.6198 14.8864 56.6198H12.9936V60.3444ZM13.7664 57.2665H14.6176C14.9648 57.2665 15.144 57.4222 15.144 57.7815C15.144 58.1528 14.9536 58.3084 14.6176 58.3084H13.7664V57.2665ZM18.0672 60.3444H18.84V57.3025H19.8928V56.6078H17.0144V57.3025H18.0672V60.3444ZM21.1248 60.3444H21.8976V56.6198H21.1248V60.3444ZM23.4096 60.3444H24.1824V58.8114H25.6496V58.1767H24.1824V57.3144H25.8736V56.6198H23.4096V60.3444ZM27.1616 60.3444H27.9344V56.6198H27.1616V60.3444ZM32.5264 57.8773C32.4368 57.015 31.7872 56.536 31.0144 56.536C29.928 56.536 29.2896 57.3983 29.2896 58.5001C29.2896 59.5779 29.928 60.4402 31.0144 60.4402C31.8768 60.4402 32.4816 59.8414 32.56 58.9192H31.8096C31.7536 59.4102 31.4848 59.7575 31.0144 59.7575C30.32 59.7575 30.0624 59.1348 30.0624 58.512C30.0624 57.8653 30.32 57.2306 31.0144 57.2306C31.3952 57.2306 31.7312 57.518 31.776 57.8773H32.5264ZM33.5344 60.3444H34.3184L34.5984 59.518H35.9088L36.1776 60.3444H36.984L35.6736 56.6198H34.8784L33.5344 60.3444ZM35.2592 57.542L35.7072 58.9073H34.8L35.2592 57.542ZM38.5296 60.3444H39.3024V57.3025H40.3552V56.6078H37.4768V57.3025H38.5296V60.3444ZM41.5872 60.3444H42.36V56.6198H41.5872V60.3444ZM45.44 56.536C44.3536 56.536 43.7152 57.3983 43.7152 58.5001C43.7152 59.5779 44.3536 60.4402 45.44 60.4402C46.5264 60.4402 47.1648 59.5779 47.1648 58.5001C47.1648 57.3983 46.5264 56.536 45.44 56.536ZM45.44 59.7456C44.7456 59.7456 44.488 59.1228 44.488 58.5001C44.488 57.8534 44.7456 57.2186 45.44 57.2186C46.1344 57.2186 46.392 57.8414 46.392 58.5001C46.392 59.1228 46.1344 59.7456 45.44 59.7456ZM48.52 60.3444H49.248V57.8534H49.2592L50.7152 60.3444H51.488V56.6198H50.76V59.1228H50.7488L49.2816 56.6198H48.52V60.3444Z" fill="#222222"/>
</g>
<defs>
<clipPath id="clip0_33_4761">
<rect width="56" height="60" fill="white" transform="translate(0 0.5)"/>
</clipPath>
</defs>
</svg>
