<svg width="61" height="61" viewBox="0 0 61 61" fill="none" xmlns="http://www.w3.org/2000/svg">
<g clip-path="url(#clip0_81_101)">
<path fill-rule="evenodd" clip-rule="evenodd" d="M30.3238 0.0390625C13.7192 0.0390625 0.256836 13.6746 0.256836 30.4955C0.256836 47.3152 13.7192 60.9505 30.3238 60.9505C46.9278 60.9505 60.3892 47.3152 60.3892 30.4955C60.3892 13.6746 46.9278 0.0390625 30.3238 0.0390625Z" fill="#00A650"/>
<path fill-rule="evenodd" clip-rule="evenodd" d="M30.3242 3.41565C15.5608 3.41565 3.59082 15.5394 3.59082 30.4953C3.59082 45.4501 15.5608 57.5737 30.3242 57.5737C45.0872 57.5737 57.0562 45.4501 57.0562 30.4953C57.0562 15.5394 45.0872 3.41565 30.3242 3.41565Z" fill="#00A650"/>
<path d="M30.3234 4.14413H30.3206V4.14124C23.1408 4.14177 16.6373 7.09237 11.9281 11.8627C7.22102 16.6312 4.30777 23.2174 4.30648 30.4893H4.30959V30.4985H4.30648C4.30726 37.7717 7.22102 44.3594 11.9297 49.129C16.6378 53.8972 23.1395 56.8468 30.3175 56.8481V56.8452H30.3265V56.8481C37.5063 56.8475 44.0101 53.8962 48.7182 49.1269C53.4251 44.3586 56.3375 37.7725 56.3386 30.5016H56.3362V30.4927H56.3386C56.3386 23.2184 53.4243 16.6299 48.7159 11.8606C44.0083 7.09237 37.5071 4.14282 30.3296 4.14124V4.14413H30.3234ZM30.3206 2.6898V2.68744H30.3296V2.6898C37.908 2.69163 44.7682 5.80213 49.7325 10.8309C54.698 15.8603 57.7706 22.8126 57.7716 30.4927H57.7745V30.5016H57.7716C57.7695 38.1785 54.6986 45.1282 49.7348 50.1568C44.7697 55.1864 37.907 58.2985 30.3265 58.2992V58.3021H30.3175V58.2992C22.7386 58.2977 15.8779 55.1872 10.9128 50.1589C5.94725 45.1293 2.87472 38.1777 2.87394 30.4985H2.87109V30.4893H2.87394C2.87576 22.8113 5.94725 15.8616 10.9115 10.8328C15.8771 5.80213 22.7401 2.69085 30.3206 2.6898Z" fill="white"/>
<path fill-rule="evenodd" clip-rule="evenodd" d="M22.4253 44.4301L22.9651 42.7472H22.9915L23.5396 44.4301H22.4253ZM25.4018 45.4789C25.071 44.5793 24.6952 43.5396 24.3212 42.4924L23.7299 40.8273L23.1306 40.9492L21.3904 45.5049C21.1049 46.2451 20.9731 46.2792 20.5289 46.3419L20.5297 46.6858H22.5559V46.3419L22.3054 46.3154C21.9045 46.2706 21.9045 46.1833 22.0169 45.8053L22.279 44.9594H23.7051L24.0187 45.8577C24.1306 46.1744 24.1125 46.2635 23.7921 46.3067L23.5297 46.3419V46.6858H26.2614V46.3419C25.8356 46.2905 25.6787 46.2451 25.4018 45.4789ZM37.8452 44.4301L38.3863 42.7472H38.4106L38.9605 44.4301H37.8452ZM40.8209 45.4789C40.4902 44.5793 40.1162 43.5396 39.7424 42.4924L39.1511 40.8273L38.55 40.9492L36.8098 45.5049C36.5228 46.2451 36.3953 46.2792 35.9512 46.3419V46.6858H37.9781V46.3419L37.7251 46.3154C37.3244 46.2706 37.3244 46.1833 37.4376 45.8053L37.6981 44.9594H39.1242L39.4384 45.8577C39.5497 46.1744 39.5319 46.2635 39.2112 46.3067L38.9507 46.3419V46.6858H41.6823V46.3419C41.2553 46.2905 41.1009 46.2451 40.8209 45.4789ZM48.1545 45.9723C47.9712 46.2006 47.5972 46.2265 47.32 46.2265C47.0491 46.2265 46.8492 46.2195 46.709 46.1487C46.5523 46.0693 46.535 45.8488 46.535 45.3901V42.3679C46.535 41.4166 46.6054 41.3561 47.233 41.3031V40.9581H44.4044V41.3031C44.989 41.3561 45.0589 41.4166 45.0589 42.3679V45.275C45.0589 46.2265 44.989 46.2905 44.3273 46.3419V46.6858H48.6425C48.7194 46.4119 48.9028 45.4957 48.9533 45.1615L48.5793 45.0999C48.4392 45.5667 48.2918 45.8053 48.1545 45.9723ZM32.7318 45.9723C32.5497 46.2006 32.177 46.2265 31.8981 46.2265C31.6279 46.2265 31.4274 46.2195 31.2891 46.1487C31.1319 46.0693 31.1138 45.8488 31.1138 45.3901V42.3679C31.1138 41.4166 31.1837 41.3561 31.81 41.3031V40.9581H28.9851V41.3031C29.5663 41.3561 29.6365 41.4166 29.6365 42.3679V45.275C29.6365 46.2265 29.5663 46.2905 28.9068 46.3419V46.6858H33.2195C33.2967 46.4119 33.4798 45.4957 33.5331 45.1615L33.1594 45.0999C33.019 45.5667 32.8719 45.8053 32.7318 45.9723ZM15.0586 41.3031C15.6076 41.3561 15.6763 41.4166 15.6763 42.3679V43.39H13.876V42.3679C13.876 41.4166 13.9459 41.3561 14.4768 41.3031V40.9581H11.6934V41.3031C12.3264 41.3561 12.3965 41.4166 12.3965 42.3679V45.275C12.3965 46.2265 12.3264 46.2905 11.7268 46.3419V46.6858H14.5108V46.3419C13.9459 46.2905 13.876 46.2265 13.876 45.275V43.9363H15.6763V45.275C15.6763 46.2265 15.6076 46.2905 14.9881 46.3419V46.6858H17.8237V46.3419C17.2243 46.2905 17.1544 46.2265 17.1544 45.275V42.3679C17.1544 41.4166 17.2243 41.3561 17.8421 41.3031V40.9581H15.0586V41.3031Z" fill="white"/>
<path fill-rule="evenodd" clip-rule="evenodd" d="M25.8473 26.5315C27.6021 27.7706 28.5609 31.6524 28.5609 31.6524C29.5181 22.9654 21.6989 20.4833 21.6989 20.4833C21.6989 20.4833 21.537 20.947 21.6989 23.2708C21.8564 25.6049 24.0869 25.2903 25.8473 26.5315Z" fill="white"/>
<path fill-rule="evenodd" clip-rule="evenodd" d="M21.0584 33.9769C21.6994 32.428 20.579 24.0465 20.579 21.8736C20.579 19.7073 21.3754 18.4648 21.3754 18.4648C20.2614 17.8422 19.4666 15.0494 19.4666 15.0494C19.1423 15.8254 18.0283 17.5306 18.0283 17.5306C18.0283 17.5306 21.22 32.8943 19.1423 34.7476C17.07 36.6072 12.9177 36.9241 10.5256 35.377C8.12826 33.8223 10.6815 28.8556 10.6815 28.8556C9.24378 30.5613 8.12826 32.5792 8.28884 34.7476C8.44761 36.9241 10.0438 39.0894 13.8755 39.2477C17.7043 39.4042 20.4174 35.5272 21.0584 33.9769Z" fill="white"/>
<path fill-rule="evenodd" clip-rule="evenodd" d="M41.4919 28.2362C38.8933 28.5348 37.4652 32.9507 37.3497 33.3206C37.4105 33.1557 37.7628 32.4432 39.5763 31.4948C41.6525 30.4043 45.7999 32.7374 45.7999 32.7374C43.8879 34.4431 40.3714 34.598 37.5002 34.285C34.6278 33.9707 34.7856 27.7707 34.6278 22.9655C34.4649 18.1568 33.5087 18.6227 33.5087 18.6227C33.5087 18.6227 33.6687 16.4459 31.5967 26.3748C29.519 36.2982 18.3457 38.7788 18.3457 38.7788C24.5737 39.7136 29.0409 36.7659 30.6325 33.6653C32.2318 30.5614 33.3442 24.0465 33.3442 24.0465C33.3442 33.3565 34.1461 35.6801 36.5421 36.7659C38.9368 37.8566 43.5662 36.3042 46.9193 35.0609C49.0529 34.2722 51.5489 34.598 51.5489 34.598L53.4616 31.6524C53.4616 31.6524 50.7455 31.8031 48.8348 31.0327C46.9193 30.2557 44.207 27.9287 41.4919 28.2362Z" fill="white"/>
</g>
<defs>
<clipPath id="clip0_81_101">
<rect width="61" height="61" fill="white"/>
</clipPath>
</defs>
</svg>
