<svg width="60" height="61" viewBox="0 0 60 61" fill="none" xmlns="http://www.w3.org/2000/svg">
<g clip-path="url(#clip0_72_96)">
<path d="M59.6777 30.5268C59.6777 46.91 46.41 60.1777 30.0268 60.1777C13.6437 60.1777 0.375977 46.91 0.375977 30.5268C0.375977 14.1437 13.6437 0.822266 30.0268 0.822266C46.41 0.822266 59.6777 14.1437 59.6777 30.5268ZM55.649 30.5268C55.649 16.346 44.154 4.90463 30.0268 4.90463C15.8997 4.90463 4.40462 16.346 4.40462 30.5268C4.40462 44.7077 15.8997 56.149 30.0268 56.149C44.154 56.149 55.649 44.654 55.649 30.5268Z" fill="#A38E50"/>
<path d="M35.6131 44.0631H49.3105L33.733 25.6388L46.3561 17.1517H37.3319L24.8163 25.585V17.1517H14.3955V44.0631H24.8163L24.87 31.3863L35.6131 44.0631Z" fill="#A38E50"/>
</g>
<defs>
<clipPath id="clip0_72_96">
<rect width="60" height="60" fill="white" transform="translate(0 0.5)"/>
</clipPath>
</defs>
</svg>
