<svg width="69" height="61" viewBox="0 0 69 61" fill="none" xmlns="http://www.w3.org/2000/svg">
<g clip-path="url(#clip0_33_4746)">
<path d="M69 0.5H0V60.5H69V0.5Z" fill="#97BE0D"/>
<path d="M25.1211 14.5414C27.0983 14.7025 29.0493 15.0022 30.7403 15.9061C29.1554 16.6743 27.9522 17.5825 26.5761 18.4207L27.6637 12.5651C28.5259 14.7993 29.4374 17.1734 29.9175 19.4076C28.3503 17.4261 26.7473 15.9572 25.1211 14.5414Z" fill="white"/>
<path d="M33.7988 13.9467L38.2588 16.046L34.7686 18.1758C35.1067 16.2631 35.4829 14.3257 35.964 12.3202C36.4705 14.792 36.9918 17.3435 37.3551 19.7224C36.2244 17.6435 34.9953 15.855 33.7988 13.9467Z" fill="white"/>
<path d="M42.6387 16.0105C43.9528 16.3002 45.3371 16.2254 46.7214 16.0109C45.5883 17.3316 44.4358 18.627 43.2312 19.8548C43.7648 17.8918 44.2612 15.8806 44.7232 13.8243C45.043 15.8486 45.363 17.8729 45.6828 19.8972C44.7309 18.8428 43.6713 17.5476 42.6387 16.0105Z" fill="white"/>
<path d="M51.5898 15.8358C52.6811 15.4163 54.0959 14.3536 55.3221 13.5974C54.3024 15.3229 53.2828 16.9518 52.2631 18.4907C52.6035 16.7175 53.0933 14.8731 53.5394 12.95C53.8806 14.282 54.1403 15.5102 54.607 16.7141C53.6014 16.6398 52.5955 16.374 51.5898 15.8358Z" fill="white"/>
<path d="M47.7617 25.7703C49.6068 25.3456 50.8448 24.6202 52.3297 23.9517C51.0318 25.6763 49.5052 28.0174 48.4352 29.1249L50.0887 22.8495C50.4601 24.5972 50.9038 26.251 51.3451 27.9079C50.1015 27.5195 48.9337 26.7166 47.7617 25.7703Z" fill="white"/>
<path d="M43.2598 33.6412C44.9315 34.174 46.4169 34.5541 48.1781 34.3762C47.0782 35.7519 45.7203 36.6255 44.3375 37.4505C44.7971 35.6926 45.2518 33.9212 45.6408 31.9797C46.2206 33.9573 46.7139 36.285 47.3822 37.8078C45.7324 36.5382 44.4871 35.0937 43.2598 33.6412Z" fill="white"/>
<path d="M38.4355 38.7485C39.9851 39.6021 41.4538 40.4838 43.0842 40.8827C41.9002 41.5544 40.7136 42.2224 39.4593 42.8027C39.8111 41.084 40.1238 39.4703 40.5469 37.7515C41.065 39.8961 41.6368 42.0173 42.3692 44.0694C40.9722 42.687 39.6275 40.6768 38.4355 38.7485Z" fill="white"/>
<path d="M32.1035 41.8967C33.689 42.4913 35.2746 43.3813 36.86 44.346C35.5368 45.0633 34.2439 45.8986 32.9924 46.8955C33.5251 44.7651 34.1062 42.5905 34.4574 40.5151C34.9479 42.9823 35.5934 45.5679 36.0641 48.0924C35.1076 46.6101 33.4209 43.7988 32.1035 41.8967Z" fill="white"/>
<path d="M22.6406 43.5409C24.4612 43.1218 26.2416 43.0161 27.9902 43.1565C26.3061 45.1099 24.9395 46.7885 23.4488 48.5747C24.1438 45.7482 24.8388 42.9219 25.5338 40.0954C25.9694 42.7638 26.3445 45.5892 26.709 48.4421C25.6518 46.9101 24.0829 45.0631 22.6406 43.5409Z" fill="white"/>
<path d="M19.3242 22.2373C21.3744 21.4348 23.3688 21.3921 25.3477 21.608L20.8332 25.452C21.3214 23.4301 21.7955 21.4083 22.3521 19.3864C23.2012 21.3598 23.9709 23.3339 24.6057 25.2145C23.1861 23.8844 21.239 23.0164 19.3242 22.2373Z" fill="white"/>
<path d="M15.3633 33.6062C17.3621 32.2855 19.3878 31.2827 21.3867 31.2628L16.5488 37.3806L18.4989 29.0762C19.2279 31.2601 19.9462 33.6642 20.3212 35.8488C18.7863 34.9015 17.1823 34.0924 15.3633 33.6062Z" fill="white"/>
<path d="M11.8594 47.7386C12.9749 47.2136 14.9516 45.2175 16.1335 44.7785C19.4426 37.4103 32.731 27.2271 38.9146 26.4102C39.0883 26.3873 39.0681 26.5465 38.9217 26.602C32.4374 29.0576 21.5508 36.7539 17.4784 45.1154C15.9124 48.3306 15.2978 48.7871 13.2605 51.8278C13.9069 48.6026 14.5681 45.3711 15.4263 42.0543C16.2135 44.5761 16.7782 47.1941 17.3564 49.8062C15.7476 48.6787 13.8273 48.0272 11.8594 47.7386Z" fill="white"/>
</g>
<defs>
<clipPath id="clip0_33_4746">
<rect width="69" height="60" fill="white" transform="translate(0 0.5)"/>
</clipPath>
</defs>
</svg>
