<svg width="60" height="61" viewBox="0 0 60 61" fill="none" xmlns="http://www.w3.org/2000/svg">
<g clip-path="url(#clip0_33_4733)">
<path fill-rule="evenodd" clip-rule="evenodd" d="M60 30.5C60 38.4565 56.8393 46.0871 51.2132 51.7132C45.5871 57.3393 37.9565 60.5 30 60.5C22.0435 60.5 14.4129 57.3393 8.7868 51.7132C3.1607 46.0871 0 38.4565 0 30.5C0 22.5435 3.1607 14.9129 8.7868 9.2868C14.4129 3.66071 22.0435 0.5 30 0.5C37.9565 0.5 45.5871 3.66071 51.2132 9.2868C56.8393 14.9129 60 22.5435 60 30.5Z" fill="#723904"/>
<path fill-rule="evenodd" clip-rule="evenodd" d="M56.7602 30.5C56.7602 37.5972 53.9409 44.4037 48.9224 49.4221C43.9039 54.4406 37.0974 57.26 30.0002 57.26C22.903 57.26 16.0965 54.4406 11.0781 49.4221C6.05958 44.4037 3.24023 37.5972 3.24023 30.5C3.24023 23.4028 6.05958 16.5963 11.0781 11.5778C16.0965 6.55934 22.903 3.73999 30.0002 3.73999C37.0974 3.73999 43.9039 6.55934 48.9224 11.5778C53.9409 16.5963 56.7602 23.4028 56.7602 30.5Z" fill="white"/>
<path fill-rule="evenodd" clip-rule="evenodd" d="M56.7602 30.5C56.7602 45.2715 44.7717 57.26 30.0002 57.26C15.2287 57.26 3.24023 45.2715 3.24023 30.5H56.7602Z" fill="#008356"/>
<path fill-rule="evenodd" clip-rule="evenodd" d="M34.3204 57.005L53.2804 32.24L32.4004 57.02" fill="url(#paint0_linear_33_4733)"/>
<path fill-rule="evenodd" clip-rule="evenodd" d="M21.1349 55.1444L52.4922 31.4928L19.8086 54.3036" fill="url(#paint1_linear_33_4733)"/>
<path fill-rule="evenodd" clip-rule="evenodd" d="M11.0269 49.2084L51.3215 31.7329L9.91406 48.1003" fill="url(#paint2_linear_33_4733)"/>
<path fill-rule="evenodd" clip-rule="evenodd" d="M5.6323 40.3307L51.1475 31.3859L4.76758 39.0198" fill="url(#paint3_linear_33_4733)"/>
<path d="M56.7603 30.5C56.7603 37.5972 53.9409 44.4037 48.9225 49.4222C43.904 54.4406 37.0975 57.26 30.0003 57.26C22.9031 57.26 16.0965 54.4406 11.0781 49.4222C6.05959 44.4037 3.24023 37.5972 3.24023 30.5C3.24023 23.4028 6.05959 16.5963 11.0781 11.5778C16.0965 6.55934 22.9031 3.73999 30.0003 3.73999C37.0975 3.73999 43.904 6.55934 48.9225 11.5778C53.9409 16.5963 56.7603 23.4028 56.7603 30.5Z" stroke="white" stroke-width="1.05062" stroke-linejoin="round"/>
<path fill-rule="evenodd" clip-rule="evenodd" d="M14.5205 15.98H17.2205V24.6032C17.2205 24.6032 17.228 25.4245 18.0455 25.4245C18.863 25.4245 18.983 24.6107 18.983 24.6107V15.9875H21.6155V24.6182C21.6155 24.6182 21.6247 27.5 18.098 27.5C14.5926 27.5 14.5243 24.6219 14.5243 24.6219L14.5205 15.98ZM26.8352 19.5517H29.2747C29.2747 19.5517 29.4869 15.98 25.9018 15.98C24.9264 15.98 23.9561 16.4022 23.4442 16.9591C22.8888 17.5633 22.6138 18.1655 22.6138 19.2007C22.6138 20.0124 22.6996 21.2418 24.7987 22.4213C26.0842 23.1436 26.8352 23.6807 26.8352 24.4446C26.8352 25.2084 26.4109 25.4768 25.817 25.4768C25.021 25.4768 24.9207 24.6277 24.9207 24.5271C24.9207 24.4136 24.9048 23.5775 24.9048 23.5775H22.3804C22.3804 23.5775 21.9137 27.5 25.7533 27.5C29.4898 27.5 29.2747 24.6304 29.2747 24.0317C29.2747 22.1115 28.3404 21.4797 26.8564 20.6459C25.6386 19.9616 25.0321 19.5517 25.0321 18.8704C25.0321 18.1891 25.4929 18.0033 25.8594 18.0033C26.853 18.0033 26.842 18.9327 26.842 19.0304C26.842 19.1167 26.8564 19.5723 26.8352 19.5517ZM30.399 15.98H34.1113C35.1296 15.98 37.3145 16.3305 37.3145 18.4987V25.0033C37.3145 26.6182 35.8665 27.5 34.3232 27.5H30.399V15.98ZM33.053 18.0944H33.9159C34.3948 18.0944 34.6606 18.3162 34.6606 19.6885V23.8054C34.6606 24.8275 34.6241 25.3856 33.9652 25.3856H33.053V18.0944ZM40.7405 27.5H38.1755L40.6055 15.98H43.6955L46.1855 27.4688H43.4705L43.1555 25.3615H41.1605L40.7405 27.5ZM41.4455 23.3166H42.8555L42.1955 18.1186L41.4455 23.3166Z" fill="#008356"/>
<path fill-rule="evenodd" clip-rule="evenodd" d="M30.5888 42.3946H28.6623L30.4874 33.7546H32.8081L34.6783 42.3712H32.6392L32.4026 40.7907H30.9042L30.5888 42.3946ZM31.1183 39.2571H32.1773L31.6816 35.3585L31.1183 39.2571ZM12.4833 33.7546H13.5034C14.6957 33.7546 15.6556 34.7013 15.6556 35.8771V40.2722C15.6556 41.448 14.6957 42.3946 13.5034 42.3946H12.4833C11.2909 42.3946 10.3311 41.448 10.3311 40.2722V35.8771C10.3311 34.7013 11.2909 33.7546 12.4833 33.7546ZM12.9933 35.1981C13.3694 35.1981 13.6721 35.5107 13.6721 35.8989V40.2503C13.6721 40.6386 13.3694 40.9512 12.9933 40.9512C12.6172 40.9512 12.3145 40.6386 12.3145 40.2503V35.8989C12.3145 35.5107 12.6172 35.1981 12.9933 35.1981ZM18.583 38.9864V42.3946H16.5677V33.7546H19.6861C20.8952 33.7546 21.8923 34.2736 21.8923 36.0992C21.8923 37.9228 20.9801 37.8684 20.9801 38.0855C20.9801 38.3954 21.871 37.8386 21.871 40.2889C21.871 42.259 22.168 42.069 22.168 42.2264C22.168 42.3838 22.1574 42.3892 22.1574 42.3892H19.877V39.9307C19.877 39.138 19.4137 38.9864 18.583 38.9864ZM18.5512 37.3365V35.3095C18.9888 35.3095 19.877 35.1384 19.877 36.3054C19.877 37.4568 19.2487 37.3365 18.5512 37.3365ZM26.0925 39.1754H25.3924V37.7423H28.0865V42.2493H26.6652V41.5016C26.6652 41.5016 26.2834 42.3946 24.8833 42.3946C23.4832 42.3946 22.6984 41.4393 22.6984 40.2969V35.6446C22.6984 34.5439 23.9075 33.7546 25.3712 33.7546C26.8349 33.7546 28.007 34.5646 28.007 35.6031C28.007 36.6416 28.0017 36.7869 28.0017 36.7869H26.05V35.8316C26.05 35.4577 25.6258 35.1877 25.3924 35.1877C25.1591 35.1877 24.6606 35.3539 24.6606 35.9043V40.0477C24.6606 40.5462 24.8621 40.8993 25.35 40.8993C25.8379 40.8993 26.1137 40.4839 26.1137 40.11C26.1137 39.7362 26.1137 39.1131 26.0925 39.1754ZM37.0809 38.0105V42.3733H35.2141V33.7546H37.293L38.7568 38.5237V33.776H40.6023V42.3946H38.4598L37.0809 38.0105ZM41.5781 33.7546H43.5297V42.3946H41.5781V33.7546ZM47.8996 36.8285H49.8513V35.5616C49.8513 34.8139 49.13 33.7546 47.0299 33.7546C44.9298 33.7546 44.548 35.2293 44.548 35.8939V40.1931C44.548 41.0031 44.9086 42.3946 47.0935 42.3946C49.2785 42.3946 49.9573 41.0239 49.9573 40.5254V39.0093H47.9209V40.2762C47.9209 40.6006 47.6051 40.8993 47.242 40.8993C46.8906 40.8993 46.5632 40.6916 46.5632 40.2762V35.8939C46.5632 35.4993 46.7561 35.3019 47.242 35.3019C47.6625 35.3019 47.9103 35.6758 47.9103 35.9562C47.9103 36.2366 47.9209 36.8493 47.8996 36.8285Z" fill="white"/>
</g>
<defs>
<linearGradient id="paint0_linear_33_4733" x1="40.9204" y1="48.1025" x2="53.2804" y2="32.24" gradientUnits="userSpaceOnUse">
<stop stop-color="white" stop-opacity="0.337255"/>
<stop offset="1" stop-color="white" stop-opacity="0.103093"/>
</linearGradient>
<linearGradient id="paint1_linear_33_4733" x1="35.4304" y1="44.2186" x2="52.4922" y2="31.4928" gradientUnits="userSpaceOnUse">
<stop stop-color="white" stop-opacity="0.337255"/>
<stop offset="1" stop-color="white" stop-opacity="0.103093"/>
</linearGradient>
<linearGradient id="paint2_linear_33_4733" x1="33.1714" y1="39.2581" x2="51.3213" y2="31.733" gradientUnits="userSpaceOnUse">
<stop stop-color="white" stop-opacity="0.337255"/>
<stop offset="1" stop-color="white" stop-opacity="0.103093"/>
</linearGradient>
<linearGradient id="paint3_linear_33_4733" x1="33.0392" y1="34.0167" x2="51.1477" y2="31.3859" gradientUnits="userSpaceOnUse">
<stop stop-color="white" stop-opacity="0.337255"/>
<stop offset="1" stop-color="white" stop-opacity="0.103093"/>
</linearGradient>
<clipPath id="clip0_33_4733">
<rect width="60" height="60" fill="white" transform="translate(0 0.5)"/>
</clipPath>
</defs>
</svg>
